<svg width="24" height="24" viewBox="0 0 24 24" fill="none" xmlns="http://www.w3.org/2000/svg">
<g clip-path="url(#clip0_4_11)">
<path fill-rule="evenodd" clip-rule="evenodd" d="M5 0C2.23858 0 0 2.23858 0 5V19C0 21.7614 2.23858 24 5 24H19C21.7614 24 24 21.7614 24 19V5C24 2.23858 21.7614 0 19 0H5ZM20.041 18.192V8.791H16.794V18.192H20.041ZM19.633 5.289C19.293 5.09633 18.8906 5 18.426 5C17.95 5 17.542 5.09633 17.202 5.289C16.8733 5.48167 16.709 5.867 16.709 6.445C16.709 7.00033 16.8733 7.38 17.202 7.584C17.542 7.77667 17.95 7.873 18.426 7.873C18.8906 7.873 19.293 7.77667 19.633 7.584C19.9843 7.38 20.16 7.00033 20.16 6.445C20.16 5.867 19.9843 5.48167 19.633 5.289ZM12.16 15.914L12.755 18.192H16.342L12.33 6.003H7.961L4 18.192H7.604L8.216 15.914H12.16ZM10.715 10.321C10.817 10.7177 10.8963 11.0237 10.953 11.239L11.48 13.228H8.896L9.423 11.239C9.491 10.967 9.57033 10.6327 9.661 10.236C9.763 9.83933 9.85933 9.437 9.95 9.029C10.052 8.621 10.1257 8.281 10.171 8.009C10.2277 8.281 10.307 8.63233 10.409 9.063C10.511 9.49367 10.613 9.913 10.715 10.321Z" fill="black"/>
</g>
<defs>
<clipPath id="clip0_4_11">
<rect width="24" height="24" fill="white"/>
</clipPath>
</defs>
</svg>
