<svg width="24" height="24" viewBox="0 0 24 24" fill="none" xmlns="http://www.w3.org/2000/svg">
<g clip-path="url(#clip0_4_8)">
<path fill-rule="evenodd" clip-rule="evenodd" d="M5 0C2.23858 0 0 2.23858 0 5V19C0 21.7614 2.23858 24 5 24H19C21.7614 24 24 21.7614 24 19V5C24 2.23858 21.7614 0 19 0H5ZM11.65 7.003C10.8907 6.33433 9.74033 6 8.199 6H4V18.138H7.281V14.109H8.199C9.06033 14.109 9.78567 13.9957 10.375 13.769C10.9643 13.531 11.4347 13.2137 11.786 12.817C12.1487 12.409 12.4093 11.9557 12.568 11.457C12.7267 10.947 12.806 10.4143 12.806 9.859C12.806 8.62367 12.4207 7.67167 11.65 7.003ZM7.281 8.652H8.131C8.607 8.652 8.95833 8.771 9.185 9.009C9.41167 9.247 9.525 9.55867 9.525 9.944C9.525 10.3067 9.45133 10.6013 9.304 10.828C9.15667 11.0433 8.95833 11.202 8.709 11.304C8.471 11.3947 8.21033 11.44 7.927 11.44H7.281V8.652ZM20.4532 16.829C20.7252 16.3643 20.8612 15.8373 20.8612 15.248C20.8612 14.6927 20.7705 14.2393 20.5892 13.888C20.4192 13.5253 20.1529 13.2193 19.7902 12.97C19.4389 12.7093 18.9912 12.4713 18.4472 12.256C17.9259 12.0407 17.5292 11.8763 17.2572 11.763C16.9852 11.6497 16.7982 11.5477 16.6962 11.457C16.6055 11.3663 16.5602 11.2643 16.5602 11.151C16.5602 11.0263 16.6282 10.93 16.7642 10.862C16.9115 10.794 17.1099 10.76 17.3592 10.76C17.5519 10.76 17.7842 10.7883 18.0562 10.845C18.3395 10.9017 18.6399 10.981 18.9572 11.083C19.2859 11.185 19.6032 11.3097 19.9092 11.457L20.7932 9.366C20.2039 9.10533 19.6372 8.907 19.0932 8.771C18.5492 8.635 17.9655 8.567 17.3422 8.567C16.1749 8.567 15.2342 8.79933 14.5202 9.264C13.8175 9.72867 13.4662 10.42 13.4662 11.338C13.4662 11.848 13.5512 12.2843 13.7212 12.647C13.8912 12.9983 14.1462 13.3043 14.4862 13.565C14.8375 13.8143 15.2739 14.0467 15.7952 14.262C16.3279 14.4773 16.7359 14.6473 17.0192 14.772C17.3139 14.8967 17.5179 15.01 17.6312 15.112C17.7445 15.214 17.8012 15.333 17.8012 15.469C17.8012 15.6277 17.7162 15.7467 17.5462 15.826C17.3762 15.9053 17.1099 15.945 16.7472 15.945C16.3959 15.945 15.9142 15.8883 15.3022 15.775C14.6902 15.6503 14.0839 15.452 13.4832 15.18V17.781C14.0272 17.985 14.5599 18.121 15.0812 18.189C15.6139 18.2683 16.2145 18.308 16.8832 18.308C17.8352 18.308 18.6002 18.1777 19.1782 17.917C19.7675 17.6563 20.1925 17.2937 20.4532 16.829Z" fill="black"/>
</g>
<defs>
<clipPath id="clip0_4_8">
<rect width="24" height="24" fill="white"/>
</clipPath>
</defs>
</svg>
