<?xml version="1.0" encoding="utf-8"?>
<!-- Generator: Adobe Illustrator 24.0.1, SVG Export Plug-In . SVG Version: 6.00 Build 0)  -->
<svg version="1.1" id="Layer_1" xmlns="http://www.w3.org/2000/svg" xmlns:xlink="http://www.w3.org/1999/xlink" x="0px" y="0px"
	 viewBox="0 0 136 104" style="enable-background:new 0 0 136 104;" xml:space="preserve">
<style type="text/css">
	.st0{fill:#231F20;}
</style>
<title>logo</title>
<polygon class="st0" points="128,28.4 129.4,28.4 129.4,32.1 130,32.1 130,28.4 131.4,28.4 131.4,27.7 128,27.7 "/>
<polygon class="st0" points="135.3,27.7 134,31 132.7,27.7 132,27.7 132,32 132.6,32 132.7,29.4 133.6,32 134.3,32 135.3,29.4 
	135.3,32 136,32 136,27.7 "/>
<path class="st0" d="M114.4,48.1v-0.4c0.1-1.8-0.1-3.6-0.5-5.3c-0.3-1-0.9-1.8-1.6-2.4c-0.7-0.5-1.4-0.8-2.2-1
	c-1.2-0.2-2.5-0.3-3.8-0.3h-1.9h-0.9v2.9h1c-0.1-0.6,0.2-1.2,0.6-1.7c0.4-0.3,1-0.5,1.5-0.5c1.4,0.1,2.7,0.8,3.4,2
	c1,1.5,1.5,3.3,1.4,5.1c-0.7-0.2-1.3-0.3-1.8-0.4c-0.7-0.1-1.4-0.2-2.1-0.2H107c-2-0.1-4,0.5-5.7,1.7c-1.4,1.1-2.2,2.8-2.1,4.5
	c0,1.4,0.5,2.8,1.6,3.8c1.1,1,2.6,1.6,4.1,1.5h0.6c1,0,2-0.2,3-0.5c1.1-0.4,2.2-0.8,3.2-1.3V57h5.4v-0.6l-2.6-0.2L114.4,48.1z
	 M111.6,47.2v7.3c-0.7,0.6-1.5,1.1-2.4,1.4c-0.7,0.3-1.5,0.4-2.2,0.5c-1.2,0-2.4-0.5-3.2-1.4c-0.9-1.1-1.3-2.5-1.2-3.9
	c-0.1-1.3,0.3-2.6,1.3-3.5c1-0.8,2.3-1.2,3.6-1.1c0.6,0,1.1,0.1,1.7,0.2C110,46.9,110.8,47,111.6,47.2z"/>
<path class="st0" d="M34.6,68.9H34c-1.6-0.1-3.2,0.5-4.4,1.6c-1.1,1.1-1.7,2.6-1.7,4.1c-0.1,1.5,0.5,3,1.6,4.1
	c1.1,1.1,2.6,1.6,4.2,1.6h0.5c1.6,0.1,3.2-0.5,4.5-1.6c1.1-1.1,1.7-2.6,1.7-4.1c0.1-1.5-0.5-3-1.6-4.1
	C37.7,69.4,36.1,68.8,34.6,68.9z M30,74.2c-0.1-1.3,0.4-2.6,1.2-3.5c0.7-0.8,1.7-1.3,2.8-1.3c1.2,0,2.3,0.6,3.1,1.6
	c0.9,1.2,1.3,2.6,1.3,4.1c0.1,1.3-0.3,2.5-1.2,3.5c-0.7,0.8-1.7,1.2-2.8,1.3c-1.2,0-2.3-0.6-3.1-1.6C30.4,77.1,30,75.7,30,74.2z"/>
<path class="st0" d="M97.1,77.9c0-0.6,0-0.9,0-1V73c0-0.3,0-0.6,0-1.1s0-1.4,0.1-2.8h-0.6l-1.6,0.1l-1.4,0.1v0.3h1.6
	c0,0.5,0,1,0.1,1.6s0,1.2,0,1.9v3c0,0.4-0.1,0.9-0.2,1.3c-0.1,0.3-0.3,0.6-0.6,0.8c-0.4,0.4-0.9,0.7-1.5,0.9
	c-0.4,0.2-0.9,0.2-1.3,0.3c-0.9,0-1.7-0.4-2.2-1.1c-0.6-1.2-0.8-2.5-0.8-3.8V73c0-0.3,0-0.8,0-1.3s0-1.4,0.1-2.6h-0.6l-1.6,0.1
	l-1.4,0.1v0.3h1.6c0,0.7,0.1,1.4,0.1,1.9c0,0.6,0,1.1,0,1.6v1.6c0,0.8,0,1.5,0.1,2.3c0.1,0.4,0.2,0.9,0.3,1.3c0.2,0.6,0.6,1,1.2,1.3
	c0.6,0.3,1.2,0.5,1.9,0.5H91c0.8,0,1.6-0.2,2.4-0.5c0.7-0.3,1.3-0.6,1.8-1.1v1.4h0.6h0.5h1.1h0.5h0.6v-0.4l-1.3-0.1
	C97.1,79,97.1,78.5,97.1,77.9z"/>
<path class="st0" d="M48.9,98c-0.5-0.4-1.1-0.7-1.8-0.8l-0.5-0.1c-0.8-0.2-1.6-0.5-2.3-0.9c-0.4-0.4-0.6-0.9-0.5-1.4
	c0-0.6,0.2-1.3,0.7-1.7c0.5-0.4,1.1-0.6,1.7-0.6c0.4,0,0.7,0.1,1.1,0.2c0.4,0.2,0.6,0.4,0.8,0.8v1h0.8c0-0.1,0-0.1,0-0.2
	s0-0.2,0-0.3s0-0.5,0-0.8s0-0.5,0.1-0.8c-0.4-0.1-0.9-0.2-1.3-0.2C47.3,92,46.9,92,46.5,92H46c-1.1-0.1-2.1,0.2-3,0.8
	c-0.7,0.5-1.1,1.3-1.1,2.2c0,0.4,0.1,0.8,0.2,1.2c0.1,0.3,0.4,0.6,0.7,0.8c0.6,0.4,1.3,0.6,2,0.8l0.6,0.2c0.7,0.1,1.3,0.5,1.8,0.9
	c0.3,0.4,0.5,1,0.5,1.5c0,0.7-0.2,1.3-0.7,1.8c-0.4,0.4-1,0.6-1.5,0.6c-0.5,0-1-0.1-1.4-0.3c-0.5-0.2-1-0.6-1.4-1v-1.1h-0.5
	l-0.4,0.1c0.1,0.5,0.1,0.9,0.1,1.3c0,0.4,0,0.7,0,1.1c0.9,0.4,1.9,0.5,2.8,0.5h0.5c1.1,0.1,2.3-0.2,3.2-0.9c0.8-0.6,1.2-1.5,1.1-2.5
	c0-0.3-0.1-0.7-0.2-1C49.3,98.6,49.1,98.3,48.9,98z"/>
<path class="st0" d="M68.7,100.9c0-0.4,0-0.7,0-0.8v-3.1c0-0.8,0-1.6,0-2.4s0-1.6,0.1-2.3h-0.6l-1.6,0.1H65v0.4h1.7
	c0,0.5,0,1.2,0.1,2c0,0.8,0,1.3,0,1.5v3.8c0,0.1,0,0.3,0,0.9s0,1.1-0.1,1.6l-1.6,0.1v0.4h0.6h1.2h1.8h1.2h0.6v-0.3l-1.6-0.1
	C68.7,101.8,68.7,101.3,68.7,100.9z"/>
<path class="st0" d="M84.3,102.2c-0.2-0.3-0.2-0.7-0.2-1v-1l0.1-2.2c0-0.4,0-0.8,0-1.1s0-0.5,0-0.7c0.1-1.1-0.3-2.2-1-3.1
	c-0.8-0.7-1.9-1.1-2.9-1h-0.6c-0.8,0-1.6,0.2-2.3,0.5c-0.6,0.3-1.2,0.6-1.8,1l0.1-1.4h-0.5h-0.8c-1.1,0.1-2,0.1-2.6,0.1v0.4h1.7
	l0.1,2c0,0.8,0,1.3,0,1.5v3.8c0,0.1,0,0.3,0,0.9s0,1.1-0.1,1.6l-1.8,0.1v0.4h0.6h1.3h2h1.2h0.6v-0.4l-1.8-0.1c0-0.7,0-1.2-0.1-1.7
	s0-0.7,0-0.8v-3.9c0-0.4,0-0.9,0.2-1.3c0.1-0.3,0.3-0.6,0.6-0.8c0.4-0.4,0.9-0.6,1.3-0.8c0.4-0.2,0.8-0.2,1.3-0.3
	c0.9,0,1.8,0.3,2.5,1c0.7,0.9,1,2.1,0.9,3.3v1.3c0,0.4,0,1-0.1,1.7c0,0.8-0.1,1.7-0.2,2.7h0.6h0.6h1.4h0.6h0.6v-0.4l-0.8-0.1
	C84.8,102.5,84.5,102.4,84.3,102.2z"/>
<path class="st0" d="M98.6,38.7h-0.9c-1.4,0-2.7,0.4-3.9,1.2c-1.2,0.8-2.3,1.8-3.3,2.9l0.2-4.1h-0.6l-1.3,0.1
	c-1.9,0.1-3.3,0.2-4.4,0.2v0.6h2.9c0,0.9,0,2,0.1,3.4c0.1,1.4,0.1,2.2,0.1,2.6V52c0,0.1,0,0.6-0.1,1.5s-0.1,1.8-0.1,2.7l-3,0.2V57
	H85l2.2-0.1H89h1.9c0.7,0,1.4,0,2.1,0h0.6v-0.6l-3-0.2c0-1.2-0.1-2.1-0.1-2.8c0-0.7,0-1.2,0-1.4v-3c0-1,0-1.8,0-2.4
	c0-0.5,0.1-1,0.1-1.5c0.1-0.4,0.2-0.8,0.4-1.1c0.4-0.5,0.8-1,1.3-1.4c0.5-0.5,1.2-0.9,1.9-1.3c0.6-0.2,1.2-0.3,1.8-0.3
	c0.2,0,0.5,0,0.7,0.1c0.4,0.1,0.7,0.2,1.1,0.3v1.3h1v-4H98.6L98.6,38.7z"/>
<path class="st0" d="M128.8,56.4h-0.5l-0.9,0.1h-0.3c-1,0.1-2-0.5-2.5-1.4c-0.5-0.9-0.7-2.9-0.7-5.8c0-0.8,0-2.1,0.1-4.1v-0.8
	l0.1-4.5c0-0.5,0-1.4,0-2.5c0.1-4.7,0.2-8,0.3-9.8h-0.6c-0.6,0-1.2,0.1-1.9,0.1c-0.6,0-1.3,0-2,0h-2.2v0.6h3c0.2,1.3,0.4,2.7,0.4,4
	c0.1,1.7,0.2,3.9,0.2,6.5c0,1.8,0,4.2-0.1,7.2s-0.1,5-0.1,6.1v0.8c0,0.8,0,1.7,0.2,2.5c0.1,0.4,0.4,0.8,0.7,1.1
	c0.3,0.3,0.7,0.5,1.1,0.6c0.6,0.1,1.2,0.2,1.7,0.2h0.6c0.3,0,0.7,0,1.2-0.1l2.1-0.3L128.8,56.4L128.8,56.4L128.8,56.4z"/>
<path class="st0" d="M27.7,69.2h-3.9v-1.5c-0.1-1.3,0.2-2.5,0.8-3.6c0.5-0.7,1.3-1.2,2.2-1.2c0.2,0,0.5,0.1,0.7,0.1
	c0.3,0.1,0.6,0.2,0.9,0.4v0.4h0.8v-1.5h-0.3c-0.4,0-0.7-0.1-0.9-0.1h-0.5c-1.5-0.1-3,0.4-4.1,1.5c-1,1.2-1.5,2.7-1.5,4.2
	c0,0.2,0,0.4,0,0.6s0,0.4,0,0.6h-2v0.4h2V74c0,1.1,0,2.1,0,2.9s0,1.7-0.1,2.5l-1.8,0.1V80h0.5l1.2-0.1h1.1h1.1l1.3,0.1h0.5v-0.4
	l-1.8-0.1c-0.1-0.4-0.1-0.7-0.1-1.1c0-0.4,0-1.2,0-2.4v-6.4h0.6c0.4,0,0.8,0,1.2,0.1c0.3,0.1,0.5,0.2,0.7,0.4l0,0l0,0l0,0l0,0l0,0
	l0,0l0,0l0,0l0,0l0,0l0,0l0,0l0,0l0,0l0,0l0,0l1-0.9h-0.1L27.7,69.2z"/>
<path class="st0" d="M50.6,69.1h-0.7c-0.8,0-1.6,0.2-2.3,0.7c-0.6,0.4-1.2,0.9-1.7,1.4l0.1-2.2h-0.5h-0.8c-1.1,0.1-2,0.1-2.6,0.1
	v0.4h1.7c0,0.5,0,1.2,0,2s0,1.3,0,1.5V77c0,0.1,0,0.3,0,0.9s0,1.1,0,1.6L42,79.6V80h0.5h1.3h2h1.2h0.5v-0.4l-1.8-0.1
	c0-0.7,0-1.2-0.1-1.7s0-0.7,0-0.8v-1.8c0-0.6,0-1,0-1.4c0-0.3,0-0.6,0.1-0.9c0-0.2,0.1-0.5,0.3-0.7c0.2-0.3,0.5-0.6,0.8-0.8
	c0.3-0.3,0.7-0.6,1.1-0.7c0.3-0.1,0.6-0.2,0.9-0.2c0.1,0,0.2,0,0.4,0c0.2,0,0.4,0.1,0.6,0.2v0.8h0.8v-2.3H50.6z"/>
<path class="st0" d="M70.5,69.3H70h-1.1h-0.4H67h-0.6v0.4l1.2,0.1c-0.1,0.8-0.4,1.5-0.7,2.2c-0.4,1-1.1,2.4-2.1,4.4l-0.7,1.3
	c-0.6-1.2-1.1-2.4-1.7-3.7c-0.6-1.4-1.2-2.9-1.7-4.4l1.3-0.1v-0.3h-0.5h-1.4H59h-1.4h-0.5v0.3l1.3,0.1c0.7,1.1,1.3,2.3,1.8,3.5
	c0.8,1.7,1.7,4,2.8,6.9l-0.4,1c-0.3,0.7-0.7,1.5-1.1,2.3c-0.4,0.8-0.9,1.6-1.4,2.5l-1.5,0.1v0.4h0.7h1h0.2h0.8h0.5
	c0.8-2.8,1.9-5.6,3.1-8.3c1.3-2.9,2.9-5.7,4.6-8.4l1.1-0.1L70.5,69.3L70.5,69.3L70.5,69.3z"/>
<path class="st0" d="M109.2,69.1h-0.7c-0.8,0-1.6,0.2-2.3,0.7c-0.6,0.4-1.2,0.9-1.7,1.4l0.1-2.2h-0.6h-0.8c-1.1,0.1-2,0.1-2.6,0.1
	v0.4h1.7c0,0.5,0,1.2,0.1,2s0,1.3,0,1.5V77c0,0.1,0,0.3,0,0.9s0,1.1-0.1,1.6l-1.8,0.1V80h0.6h1.3h2h1.2h0.6v-0.4l-1.8-0.1
	c0-0.7,0-1.2-0.1-1.7s0-0.7,0-0.8v-1.8c0-0.6,0-1,0-1.4c0-0.3,0-0.6,0.1-0.9c0-0.2,0.1-0.5,0.3-0.7c0.2-0.3,0.5-0.6,0.8-0.8
	c0.3-0.3,0.7-0.6,1.1-0.7c0.3-0.1,0.6-0.2,0.9-0.2c0.1,0,0.2,0,0.4,0c0.2,0,0.4,0.1,0.6,0.2v0.8h0.8v-2.3H109.2z"/>
<path class="st0" d="M51.9,28.3c-0.9,0-1.7-0.2-2.5-0.6c-0.9-0.4-1.7-1-2.3-1.7v-1.9h-0.5l-0.6,0.1c0.1,0.8,0.2,1.5,0.2,2.2
	c0,0.7,0.1,1.3,0.1,1.8c0.7,0.3,1.5,0.5,2.3,0.7c0.8,0.2,1.7,0.2,2.5,0.2h0.5c1.9,0.1,3.8-0.4,5.4-1.5c1.3-1,2-2.6,1.9-4.3
	c0-0.6-0.1-1.2-0.3-1.8c-0.2-0.5-0.5-1-0.9-1.4c-0.9-0.7-1.9-1.2-3-1.4c-0.4-0.1-0.7-0.2-0.9-0.2c-1.4-0.2-2.8-0.8-4-1.6
	c-0.6-0.6-1-1.5-0.9-2.4c0-1.1,0.4-2.1,1.3-2.8c0.9-0.7,1.9-1,3-1c0.7,0,1.4,0.1,2,0.4c0.6,0.3,1.1,0.7,1.4,1.3V14h1.1
	c0-0.1,0-0.2,0-0.4s0-0.3,0-0.6c0-0.4,0-0.9,0-1.3s0.1-0.9,0.2-1.3c-0.7-0.2-1.4-0.3-2.2-0.4c-0.7-0.1-1.4-0.1-2.1-0.1H53
	c-1.8-0.1-3.5,0.4-5,1.3c-1.2,0.9-1.9,2.3-1.8,3.8c0,0.7,0.1,1.4,0.4,2c0.2,0.5,0.6,1,1.1,1.3c1.1,0.6,2.2,1,3.4,1.3l1,0.3
	c1.1,0.2,2.2,0.8,3,1.5c0.6,0.7,0.9,1.6,0.8,2.6c0.2,2.1-1.4,4-3.5,4.2C52.3,28.2,52.1,28.2,51.9,28.3L51.9,28.3z"/>
<path class="st0" d="M71.4,29.1H72c2.8,0.1,5.4-0.8,7.5-2.6c1.9-1.8,2.9-4.3,2.8-6.9c0.1-2.6-0.9-5.1-2.7-7
	c-1.9-1.8-4.5-2.8-7.2-2.6h-0.6c-2.7-0.1-5.4,0.8-7.4,2.7c-1.9,1.8-2.9,4.3-2.8,6.9c-0.1,2.6,0.9,5.1,2.7,6.9
	C66.2,28.3,68.8,29.2,71.4,29.1z M77,13.4c1.5,2,2.3,4.5,2.2,7c0.1,2.1-0.6,4.2-1.9,5.8c-1.3,1.4-3,2.2-4.9,2.1
	c-2.1-0.1-4-1-5.3-2.7c-1.5-1.9-2.3-4.3-2.2-6.8c-0.1-2.2,0.6-4.3,2-6c1.2-1.4,3-2.2,4.9-2.2C73.8,10.8,75.7,11.7,77,13.4z"/>
<path class="st0" d="M21.7,57l1,0.1h0.5v-0.7L22,56.2c-0.5,0-1-0.2-1.4-0.6c-0.3-0.5-0.4-1.1-0.4-1.7v-1.6l0.1-3.7
	c0-0.7,0.1-1.3,0.1-1.8c0-0.5,0-0.9,0-1.2c0.1-1.9-0.5-3.7-1.7-5.2c-1.3-1.3-3.2-1.9-5-1.7h-0.6c-1.3,0-2.7,0.3-3.9,0.8
	c-1.2,0.5-2.3,1.2-3.4,2l0.2-2.8H5.8l-1.3,0.1c-1.9,0.1-3.3,0.2-4.4,0.2v0.6H3c0,0.9,0,2,0.1,3.4c0.1,1.4,0.1,2.2,0.1,2.6V52
	c0,0.1,0,0.6-0.1,1.5S3,55.3,3,56.2l-3,0.2V57h0.6l2.2-0.1h1.8h1.9c0.7,0,1.4,0,2.1,0.1h0.6v-0.6l-3-0.2C6,55,6,54.1,6,53.4
	c0-0.7,0-1.2,0-1.4v-6.6c0-0.7,0.1-1.5,0.3-2.2c0.2-0.5,0.6-1,1-1.3c0.7-0.6,1.4-1.1,2.3-1.4c0.7-0.3,1.5-0.4,2.2-0.4
	c1.7-0.1,3.3,0.5,4.5,1.8c1,1.2,1.5,3,1.5,5.5v2.2c0,0.7,0,1.6-0.1,2.9c-0.1,1.3-0.2,2.8-0.3,4.5h0.5l1-0.1h1.4L21.7,57z"/>
<path class="st0" d="M31.4,57.6h0.5c1,0,2-0.2,3-0.5c1.1-0.4,2.2-0.8,3.2-1.3V57h5.4v-0.6L41,56.2v-8.4c0.1-1.8-0.1-3.6-0.5-5.3
	c-0.3-1-0.9-1.8-1.7-2.4c-0.7-0.5-1.4-0.8-2.3-1c-1.2-0.2-2.5-0.3-3.8-0.3h-1.9h-0.9v2.9h1c-0.1-0.6,0.2-1.2,0.6-1.7
	c0.4-0.4,1-0.5,1.5-0.5c1.4,0.1,2.7,0.8,3.4,2c1,1.5,1.5,3.3,1.4,5.1c-0.7-0.2-1.3-0.3-1.8-0.4c-0.7-0.1-1.4-0.2-2.1-0.2h-0.5
	c-2-0.1-4,0.5-5.7,1.7c-1.4,1.1-2.2,2.8-2.1,4.5c0,1.5,0.6,2.8,1.6,3.8C28.4,57,29.9,57.6,31.4,57.6z M38.1,47.3v7.3
	c-0.7,0.6-1.5,1.1-2.4,1.4c-0.7,0.3-1.5,0.4-2.2,0.5c-1.2,0-2.4-0.5-3.1-1.4c-0.9-1.1-1.3-2.5-1.2-3.9c-0.1-1.3,0.3-2.6,1.3-3.5
	c1-0.8,2.3-1.2,3.6-1.1c0.6,0,1.1,0.1,1.7,0.2C36.5,46.9,37.3,47,38.1,47.3L38.1,47.3z"/>
<path class="st0" d="M53,57.4h0.5c0.7,0,1.4-0.1,2-0.3c0.8-0.3,1.6-0.6,2.3-1l-0.3-0.5h-0.1l0,0h-0.1l0,0h-0.1l0,0h-0.1l0,0h-0.1
	l0,0h-0.1l0,0h-0.1l0,0h-0.1l0,0c-0.5,0.2-1.1,0.4-1.7,0.5c-0.3,0.1-0.7,0.1-1,0.1c-1.3,0-2.4-0.7-3.1-1.8c-0.8-1.8-1.2-3.8-1.1-5.8
	c0-0.3,0-0.7,0-1.1s0-0.9,0-1.6l0.3-6.3h0.8c0.7,0,1.5,0.1,2.2,0.3c0.5,0.1,1,0.4,1.3,0.8l0,0l0,0l0,0l0,0l0,0l0,0l0,0l0,0l0,0l0,0
	l0,0l0,0l0,0l0,0l0,0l0,0l2-1.7h-6.3l0.4-6H51l0,0h-0.1l0,0h-0.1l0,0h-0.1l0,0h-0.1l0,0h-0.1l0,0h-0.1l0,0h-0.1l0,0l-2.5,1
	c0,0.2,0,0.6,0,1c0,0.4,0,0.8,0,1c0,0.7,0,1.6-0.1,2.9v0.1h-3.3v0.6h3.3c0,0.5,0,1.2-0.1,2.1c-0.1,3.5-0.2,5.9-0.2,7.1v0.5
	c0,1.5,0.1,3.1,0.4,4.6c0.2,0.8,0.6,1.6,1.2,2.2c0.5,0.4,1,0.8,1.7,1C51.5,57.2,52.2,57.4,53,57.4L53,57.4z"/>
<path class="st0" d="M59.5,39.5H62c0.1,1.2,0.1,2.3,0.1,3.2s0,1.9,0,2.8v2.7c0,1.3,0,2.6,0.2,3.9c0.1,0.8,0.3,1.5,0.5,2.2
	c0.4,0.9,1.1,1.7,2,2.2c1,0.6,2.1,0.8,3.2,0.8h0.6c1.4,0,2.7-0.3,4-0.8c1.3-0.5,2.4-1.3,3.5-2.1L76,57h0.6l0.8-0.1h1.2h1.2l0.9,0.1
	h0.6v-0.6L79,56.2c0-0.8,0-1.6-0.1-2.6c0-1-0.1-1.5-0.1-1.7v-6.7c0-0.4,0-1.1,0-1.9s0-2.4,0.1-4.7h-0.6l-2.8,0.2l-2.3,0.1v0.6H76
	c0,0.8,0.1,1.8,0.1,2.8c0,1,0,2.1,0,3.2v5c0,0.7-0.1,1.5-0.3,2.2c-0.2,0.5-0.6,0.9-1,1.3c-0.7,0.6-1.6,1.1-2.5,1.5
	c-0.8,0.3-1.6,0.5-2.4,0.5c-1.5,0.1-3-0.7-3.8-1.9c-0.8-1.3-1.3-3.4-1.3-6.4v-2.4c0-0.5,0-1.3,0-2.2s0.1-2.4,0.2-4.3h-0.6l-2.8,0.2
	l-2.4,0.1v0.6H59.5L59.5,39.5z"/>
<path class="st0" d="M77,80.3h0.6c1.6,0.1,3.2-0.5,4.4-1.6c1.1-1.1,1.7-2.6,1.7-4.1c0.1-1.5-0.5-3-1.6-4.1c-1.1-1.1-2.7-1.6-4.3-1.6
	h-0.5c-1.6-0.1-3.2,0.5-4.4,1.6c-1.1,1.1-1.7,2.6-1.7,4.1c-0.1,1.5,0.5,3,1.6,4.1C73.9,79.8,75.4,80.3,77,80.3z M80.3,70.9
	c0.9,1.2,1.3,2.6,1.3,4.1c0.1,1.3-0.3,2.5-1.2,3.5c-0.7,0.8-1.7,1.2-2.8,1.3c-1.2,0-2.3-0.6-3.1-1.6c-0.9-1.1-1.4-2.6-1.3-4
	c-0.1-1.3,0.3-2.5,1.2-3.5c0.7-0.8,1.7-1.3,2.8-1.3C78.5,69.4,79.6,70,80.3,70.9L80.3,70.9z"/>
<path class="st0" d="M60,100.4c-1-1.1-2.2-2.5-3.6-4.2c0.9-0.5,1.9-1.2,3-2c0.6-0.5,1.3-1,2-1.3l1.2-0.1v-0.3h-0.5H61h-1.7h-1.1
	h-0.5v0.3l1.5,0.1c-0.3,0.7-0.7,1.3-1.4,1.7c-0.9,0.7-1.8,1.3-2.8,1.8v-5.7c0-0.8,0-1.6,0-2.4s0-1.8,0.1-2.7h-0.5h-1h-1h-0.8h-0.5
	V86l1.6,0.1c0.2,1.1,0.3,2.1,0.3,3.2c0.1,1.5,0.1,3.2,0.1,5.2c0,1,0,2.2,0,3.6c0,1.4-0.1,2.9-0.2,4.5l-1.8,0.1v0.4h0.5H53h2h1.2h0.5
	v-0.3l-1.8-0.1c0-0.7,0-1.2,0-1.6s0-0.7,0-0.8v-2.7c0.7,0.6,1.4,1.3,2,2c0.8,0.9,1.8,2.2,2.9,3.6h0.5h0.7h1.7h0.7H64v-0.3l-1.6-0.1
	C61.5,101.9,60.7,101.2,60,100.4z"/>
<path class="st0" d="M67.3,89.1h0.6c0.3,0,0.6-0.1,0.8-0.3c0.2-0.2,0.3-0.5,0.3-0.8c0-0.3,0-0.5-0.2-0.7c-0.1-0.2-0.3-0.2-0.5-0.2
	h-0.6c-0.3,0-0.5,0.1-0.8,0.3c-0.2,0.2-0.3,0.5-0.3,0.8c0,0.3,0,0.5,0.2,0.8C66.9,89,67.1,89.1,67.3,89.1z"/>
</svg>
